#N canvas 460 -1410 1393 1335 10;
#X obj 175 402 random 6;
#X obj 175 428 select 0 1 2 3 4 5;
#X msg 175 455 -3;
#X msg 192 479 -2;
#X msg 211 507 -1;
#X msg 229 530 1;
#X msg 248 553 2;
#X msg 264 579 3;
#X obj 115 667 t f f;
#X obj 175 296 tgl 15 0 empty empty empty 0 -6 0 8 #fcfcfc #000000 #000000 0 1;
#X obj 113 984 mtof;
#X obj 113 1014 osc~;
#X obj 111 1273 dac~;
#X obj 175 365 metro 250;
#X obj 175 774 mod 7;
#X obj 113 860 div 7;
#X obj 113 897 * 12;
#X obj 115 608 + 35;
#X obj 115 730 t f f;
#X obj 175 795 select 0 1 2 3 4 5 6;
#X msg 175 822 0;
#X msg 191 848 2;
#X msg 209 873 3;
#X msg 225 899 5;
#X msg 242 924 7;
#X msg 260 949 8;
#X msg 277 974 10;
#X obj 113 951 +;
#X obj 648 406 random 6;
#X obj 648 435 select 0 1 2 3 4 5;
#X msg 648 462 -3;
#X msg 665 487 -2;
#X msg 683 512 -1;
#X msg 699 536 1;
#X msg 718 561 2;
#X msg 735 586 3;
#X obj 588 679 t f f;
#X obj 589 972 mtof;
#X obj 589 1001 osc~;
#X obj 648 785 mod 7;
#X obj 588 853 div 7;
#X obj 588 886 * 12;
#X obj 588 747 t f f;
#X obj 648 807 select 0 1 2 3 4 5 6;
#X msg 648 834 0;
#X msg 664 860 2;
#X msg 683 885 3;
#X msg 700 912 5;
#X msg 717 939 7;
#X msg 734 964 8;
#X msg 751 990 10;
#X obj 589 937 +;
#X obj 648 367 metro 125;
#X msg 414 837 1;
#X obj 438 206 bng 15 250 50 0 empty empty empty 0 -6 0 8 #fcfcfc #000000 #000000;
#X msg 383 236 35;
#X msg 488 236 0;
#X obj 589 1034 *~ 0;
#X obj 414 811 select 42;
#X obj 335 643 ==;
#X obj 335 672 select 1;
#X msg 335 698 0;
#X msg 128 1050 1 10 \, 0 200 10;
#X obj 128 1071 vline~;
#X obj 113 1101 *~;
#X obj 604 1094 vline~;
#X obj 589 1126 *~;
#X msg 604 1073 1 10 \, 0 100 10;
#X obj 588 615 + 35;
#X obj 171 697 moses 20;
#X obj 171 725 + 12;
#X obj 217 724 moses 60;
#X obj 262 752 - 12;
#X obj 641 699 moses 20;
#X obj 641 725 + 12;
#X obj 686 724 moses 60;
#X obj 731 756 - 12;
#X msg 175 268 1;
#X obj 438 176 delay 1000;
#X obj 176 186 t b b;
#X obj 249 240 f 1;
#X obj 287 240 + 1;
#X obj 249 269 select 100;
#X obj 176 136 delay 1500;
#X obj 176 161 delay 500;
#X obj 175 333 spigot;
#X obj 231 40 loadbang;
#X obj 231 65 t b b b;
#X msg 208 298 1;
#X msg 249 298 0;
#X text 409 782 start;
#X connect 0 0 1 0;
#X connect 1 0 2 0;
#X connect 1 1 3 0;
#X connect 1 2 4 0;
#X connect 1 3 5 0;
#X connect 1 4 6 0;
#X connect 1 5 7 0;
#X connect 2 0 17 0;
#X connect 3 0 17 0;
#X connect 4 0 17 0;
#X connect 5 0 17 0;
#X connect 6 0 17 0;
#X connect 7 0 17 0;
#X connect 8 0 18 0;
#X connect 8 1 69 0;
#X connect 9 0 85 0;
#X connect 10 0 11 0;
#X connect 11 0 64 0;
#X connect 13 0 0 0;
#X connect 13 0 62 0;
#X connect 14 0 19 0;
#X connect 15 0 16 0;
#X connect 16 0 27 0;
#X connect 17 0 8 0;
#X connect 17 0 58 0;
#X connect 17 0 59 0;
#X connect 18 0 15 0;
#X connect 18 1 14 0;
#X connect 19 0 20 0;
#X connect 19 1 21 0;
#X connect 19 2 22 0;
#X connect 19 3 23 0;
#X connect 19 4 24 0;
#X connect 19 5 25 0;
#X connect 19 6 26 0;
#X connect 20 0 27 1;
#X connect 21 0 27 1;
#X connect 22 0 27 1;
#X connect 23 0 27 1;
#X connect 24 0 27 1;
#X connect 25 0 27 1;
#X connect 26 0 27 1;
#X connect 27 0 10 0;
#X connect 28 0 29 0;
#X connect 29 0 30 0;
#X connect 29 1 31 0;
#X connect 29 2 32 0;
#X connect 29 3 33 0;
#X connect 29 4 34 0;
#X connect 29 5 35 0;
#X connect 30 0 68 0;
#X connect 31 0 68 0;
#X connect 32 0 68 0;
#X connect 33 0 68 0;
#X connect 34 0 68 0;
#X connect 35 0 68 0;
#X connect 36 0 42 0;
#X connect 36 1 73 0;
#X connect 37 0 38 0;
#X connect 38 0 57 0;
#X connect 39 0 43 0;
#X connect 40 0 41 0;
#X connect 41 0 51 0;
#X connect 42 0 40 0;
#X connect 42 1 39 0;
#X connect 43 0 44 0;
#X connect 43 1 45 0;
#X connect 43 2 46 0;
#X connect 43 3 47 0;
#X connect 43 4 48 0;
#X connect 43 5 49 0;
#X connect 43 6 50 0;
#X connect 44 0 51 1;
#X connect 45 0 51 1;
#X connect 46 0 51 1;
#X connect 47 0 51 1;
#X connect 48 0 51 1;
#X connect 49 0 51 1;
#X connect 50 0 51 1;
#X connect 51 0 37 0;
#X connect 52 0 28 0;
#X connect 52 0 67 0;
#X connect 53 0 52 0;
#X connect 53 0 57 1;
#X connect 54 0 55 0;
#X connect 54 0 56 0;
#X connect 55 0 17 1;
#X connect 55 0 68 1;
#X connect 56 0 52 0;
#X connect 56 0 57 1;
#X connect 57 0 66 0;
#X connect 58 0 53 0;
#X connect 59 0 60 0;
#X connect 60 0 61 0;
#X connect 60 0 78 0;
#X connect 60 0 83 0;
#X connect 61 0 9 0;
#X connect 61 0 52 0;
#X connect 62 0 63 0;
#X connect 63 0 64 1;
#X connect 64 0 12 0;
#X connect 65 0 66 1;
#X connect 66 0 12 1;
#X connect 67 0 65 0;
#X connect 68 0 36 0;
#X connect 68 0 59 1;
#X connect 69 0 70 0;
#X connect 69 1 71 0;
#X connect 70 0 17 1;
#X connect 71 0 17 1;
#X connect 71 1 72 0;
#X connect 72 0 17 1;
#X connect 73 0 74 0;
#X connect 73 1 75 0;
#X connect 74 0 68 1;
#X connect 75 0 68 1;
#X connect 75 1 76 0;
#X connect 76 0 68 1;
#X connect 77 0 9 0;
#X connect 78 0 54 0;
#X connect 79 0 77 0;
#X connect 79 1 80 0;
#X connect 80 0 81 0;
#X connect 80 0 82 0;
#X connect 81 0 80 1;
#X connect 82 0 89 0;
#X connect 83 0 84 0;
#X connect 84 0 79 0;
#X connect 85 0 13 0;
#X connect 86 0 87 0;
#X connect 87 0 77 0;
#X connect 87 1 88 0;
#X connect 87 1 80 0;
#X connect 87 2 54 0;
#X connect 88 0 85 1;
#X connect 89 0 85 1;
