#N struct struct1 float x float y float f float b float c float n float side1 float side2 float side3 float side4 float temp symbol catnose symbol catmouth symbol catlipright symbol catlipleft;
#N canvas 510 38 1218 1051 12;
#X declare -lib pdlua -path pdlua;
#N canvas 51 127 1013 879 structure 1;
#X obj 71 591 s scalar-editing;
#X obj 50 44 inlet;
#X obj 54 624 outlet;
#X obj 51 188 drawpolygon 0 1 10 10 22.8 29.2 48.4 29.2 61.2 10 48.4 -9.2 22.8 -9.2 10 10;
#X obj 50 119 drawnumber f 20 3 0 f=;
#X obj 51 272 filledpolygon -v b 0 0 1 10 10 22.8 29.2 48.4 29.2 61.2 10 48.4 -9.2 22.8 -9.2 10 10;
#X floatatom 50 82 5 0 0 0 - - - 0;
#X text 47 160 hex tiles;
#X text 48 245 blocks;
#X text 496 162 cat;
#X obj 201 561 route click;
#X obj 201 590 s \$0-circles;
#X obj 52 334 drawcurve -v b 999 12 side1 side3 side2 side3 side2 side4 side1 side4 side1 side3;
#X obj 52 394 drawcurve -v b 0 14 35.6 10 35.6 10 35.6 10 35.6 10 35.6 10;
#X obj 502 230 filledpolygon -v c 999 999 1 10 10 22.8 29.2 48.4 29.2 61.2 10 48.4 -9.2 22.8 -9.2 10 10;
#X obj 499 188 filledpolygon -v c 768 0 1 10 10 22.8 29.2 30.8 16 40.4 16 48.4 29.2 61.2 10 48.4 -9.2 22.8 -9.2 10 10;
#X obj 499 273 drawsymbol -v c catnose 32.6 8 0;
#X obj 54 491 struct struct1 float x float y float f float b float c float n float side1 float side2 float side3 float side4 float temp symbol catnose symbol catmouth symbol catlipright symbol catlipleft;
#X obj 503 375 drawsymbol -v c catlipleft 39.85 1 0;
#X obj 501 344 drawsymbol -v c catlipright 27.85 1 0;
#X obj 500 312 drawsymbol -v c catmouth 33.85 3 0;
#X connect 1 0 6 0;
#X connect 6 0 4 0;
#X connect 10 0 11 0;
#X connect 17 0 0 0;
#X connect 17 0 2 0;
#X connect 17 0 10 0;
#X restore 91 102 pd structure;
#N canvas 838 -1192 696 780 graphic 0;
#X scalar struct1 48 -24 111 0 0 0 0 0 0 0 0     \;;
#X text 0 738 trap the cat! click on any tile to try to enclose the cat.;
#X scalar struct1 96 -48 112 0 0 0 0 0 0 0 0     \;;
#X scalar struct1 144 -24 113 0 0 0 0 0 0 0 0     \;;
#X scalar struct1 192 -48 114 0 0 0 0 0 0 0 0     \;;
#X scalar struct1 240 -24 115 0 0 0 0 0 0 0 0     \;;
#X scalar struct1 288 -48 116 0 0 0 0 0 0 0 0     \;;
#X scalar struct1 336 -24 117 0 0 0 0 0 0 0 0     \;;
#X scalar struct1 384 -48 118 0 0 0 0 0 0 0 0     \;;
#X scalar struct1 432 -24 119 0 0 0 0 0 0 0 0     \;;
#X scalar struct1 480 -48 120 0 0 0 0 0 0 0 0     \;;
#X scalar struct1 0 -48 110 0 0 0 0 0 0 0 0     \;;
#X scalar struct1 48 -72 100 0 0 0 0 0 0 0 0     \;;
#X scalar struct1 96 -96 101 0 0 0 0 0 0 0 0     \;;
#X scalar struct1 144 -72 102 0 0 0 0 0 0 0 0     \;;
#X scalar struct1 192 -96 103 0 0 0 0 0 0 0 0     \;;
#X scalar struct1 240 -72 104 0 0 0 0 0 0 0 0     \;;
#X scalar struct1 288 -96 105 0 0 0 0 0 0 0 0     \;;
#X scalar struct1 336 -72 106 0 0 0 0 0 0 0 0     \;;
#X scalar struct1 384 -96 107 0 0 0 0 0 0 0 0     \;;
#X scalar struct1 432 -72 108 0 0 0 0 0 0 0 0     \;;
#X scalar struct1 480 -96 109 0 0 0 0 0 0 0 0     \;;
#X scalar struct1 0 -96 99 0 0 0 0 0 0 0 0     \;;
#X scalar struct1 48 -120 89 0 0 0 0 0 0 0 0     \;;
#X scalar struct1 96 -144 90 0 0 0 0 0 0 0 0     \;;
#X scalar struct1 144 -120 91 0 0 0 0 0 0 0 0     \;;
#X scalar struct1 192 -144 92 0 0 0 0 0 0 0 0     \;;
#X scalar struct1 240 -120 93 0 0 0 0 0 0 0 0     \;;
#X scalar struct1 288 -144 94 0 0 0 0 0 0 0 0     \;;
#X scalar struct1 336 -120 95 0 0 0 0 0 0 0 0     \;;
#X scalar struct1 384 -144 96 0 0 0 0 0 0 0 0     \;;
#X scalar struct1 432 -120 97 0 0 0 0 0 0 0 0     \;;
#X scalar struct1 480 -144 98 0 0 0 0 0 0 0 0     \;;
#X scalar struct1 0 -144 88 0 0 0 0 0 0 0 0     \;;
#X scalar struct1 48 -168 78 0 0 0 0 0 0 0 0     \;;
#X scalar struct1 96 -192 79 0 0 0 0 0 0 0 0     \;;
#X scalar struct1 144 -168 80 0 0 0 0 0 0 0 0     \;;
#X scalar struct1 192 -192 81 0 0 0 0 0 0 0 0     \;;
#X scalar struct1 240 -168 82 0 0 0 0 0 0 0 0     \;;
#X scalar struct1 288 -192 83 0 0 0 0 0 0 0 0     \;;
#X scalar struct1 336 -168 84 0 0 0 0 0 0 0 0     \;;
#X scalar struct1 384 -192 85 0 0 0 0 0 0 0 0     \;;
#X scalar struct1 432 -168 86 0 0 0 0 0 0 0 0     \;;
#X scalar struct1 480 -192 87 0 0 0 0 0 0 0 0     \;;
#X scalar struct1 0 -192 77 0 0 0 0 0 0 0 0     \;;
#X scalar struct1 48 -216 67 0 0 0 0 0 0 0 0     \;;
#X scalar struct1 96 -240 68 0 0 0 0 0 0 0 0     \;;
#X scalar struct1 144 -216 69 1 0 0 0 0 0 0 0     \;;
#X scalar struct1 192 -240 70 0 0 0 0 0 0 0 0     \;;
#X scalar struct1 240 -216 71 0 0 0 0 0 0 0 0     \;;
#X scalar struct1 288 -240 72 1 0 0 35.6 35.6 10 10 0     \;;
#X scalar struct1 336 -216 73 0 0 0 0 0 0 0 0     \;;
#X scalar struct1 384 -240 74 0 0 0 0 0 0 0 0     \;;
#X scalar struct1 432 -216 75 0 0 0 0 0 0 0 0     \;;
#X scalar struct1 480 -240 76 0 0 0 0 0 0 0 0     \;;
#X scalar struct1 0 -240 66 1 0 0 0 0 0 0 0     \;;
#X scalar struct1 48 -264 56 1 0 0 0 0 0 0 0     \;;
#X scalar struct1 96 -288 57 0 6 0 0 0 0 0 0 ⬬ ∧   \;;
#X scalar struct1 144 -264 58 0 0 0 0 0 0 0 0     \;;
#X scalar struct1 192 -288 59 0 0 0 0 0 0 0 0 ⬬ ∧ _ _ \;;
#X scalar struct1 240 -264 60 0 0 0 0 0 0 0 0     \;;
#X scalar struct1 288 -288 61 1 0 0 35.6 35.6 10 10 0     \;;
#X scalar struct1 336 -264 62 0 0 0 0 0 0 0 0     \;;
#X scalar struct1 384 -288 63 0 0 0 0 0 0 0 0     \;;
#X scalar struct1 432 -264 64 0 0 0 0 0 0 0 0     \;;
#X scalar struct1 480 -288 65 0 0 0 0 0 0 0 0     \;;
#X scalar struct1 0 -288 55 0 0 0 0 0 0 0 0     \;;
#X scalar struct1 48 -312 45 0 0 0 0 0 0 0 0     \;;
#X scalar struct1 96 -336 46 0 0 0 0 0 0 0 0 ⬬ ∧ _ _ \;;
#X scalar struct1 144 -312 47 0 0 0 0 0 0 0 0 ⬬ ∧ _ _ \;;
#X scalar struct1 192 -336 48 1 0 0 35.6 35.6 10 10 0     \;;
#X scalar struct1 240 -312 49 0 0 0 0 0 0 0 0     \;;
#X scalar struct1 288 -336 50 0 0 0 0 0 0 0 0     \;;
#X scalar struct1 336 -312 51 0 0 0 0 0 0 0 0     \;;
#X scalar struct1 384 -336 52 0 0 0 0 0 0 0 0     \;;
#X scalar struct1 432 -312 53 0 0 0 0 0 0 0 0     \;;
#X scalar struct1 480 -336 54 0 0 0 0 0 0 0 0     \;;
#X scalar struct1 0 -336 44 0 0 0 0 0 0 0 0     \;;
#X scalar struct1 48 -360 34 0 0 0 0 0 0 0 0     \;;
#X scalar struct1 96 -384 35 0 0 0 0 0 0 0 0     \;;
#X scalar struct1 144 -360 36 0 0 0 0 0 0 0 0     \;;
#X scalar struct1 192 -384 37 1 0 0 35.6 35.6 10 10 0     \;;
#X scalar struct1 240 -360 38 1 0 0 0 0 0 0 0     \;;
#X scalar struct1 288 -384 39 0 0 0 0 0 0 0 0     \;;
#X scalar struct1 336 -360 40 0 0 0 0 0 0 0 0     \;;
#X scalar struct1 384 -384 41 1 0 0 0 0 0 0 0     \;;
#X scalar struct1 432 -360 42 0 0 0 0 0 0 0 0     \;;
#X scalar struct1 480 -384 43 0 0 0 0 0 0 0 0     \;;
#X scalar struct1 0 -384 33 0 0 0 0 0 0 0 0     \;;
#X scalar struct1 48 -408 23 0 0 0 0 0 0 0 0     \;;
#X scalar struct1 96 -432 24 0 0 0 0 0 0 0 0     \;;
#X scalar struct1 144 -408 25 0 0 0 0 0 0 0 0     \;;
#X scalar struct1 192 -432 26 0 0 0 0 0 0 0 0     \;;
#X scalar struct1 240 -408 27 0 0 0 0 0 0 0 0     \;;
#X scalar struct1 288 -432 28 0 0 0 0 0 0 0 0     \;;
#X scalar struct1 336 -408 29 0 0 0 0 0 0 0 0     \;;
#X scalar struct1 384 -432 30 0 0 0 0 0 0 0 0     \;;
#X scalar struct1 432 -408 31 0 0 0 0 0 0 0 0     \;;
#X scalar struct1 480 -432 32 0 0 0 0 0 0 0 0     \;;
#X scalar struct1 0 -432 22 0 0 0 0 0 0 0 0     \;;
#X scalar struct1 48 -456 12 1 0 0 0 0 0 0 0     \;;
#X scalar struct1 96 -480 13 0 0 0 0 0 0 0 0     \;;
#X scalar struct1 144 -456 14 0 0 0 0 0 0 0 0     \;;
#X scalar struct1 192 -480 15 0 0 0 0 0 0 0 0     \;;
#X scalar struct1 240 -456 16 0 0 0 0 0 0 0 0     \;;
#X scalar struct1 288 -480 17 0 0 0 0 0 0 0 0     \;;
#X scalar struct1 336 -456 18 0 0 0 0 0 0 0 0     \;;
#X scalar struct1 384 -480 19 0 0 0 0 0 0 0 0     \;;
#X scalar struct1 432 -456 20 0 0 0 0 0 0 0 0     \;;
#X scalar struct1 480 -480 21 0 0 0 0 0 0 0 0     \;;
#X scalar struct1 0 -480 11 0 0 0 0 0 0 0 0     \;;
#X scalar struct1 48 -504 1 0 0 0 0 0 0 0 0     \;;
#X scalar struct1 96 -528 2 0 0 0 0 0 0 0 0     \;;
#X scalar struct1 144 -504 3 0 0 0 0 0 0 0 0     \;;
#X scalar struct1 192 -528 4 1 0 0 0 0 0 0 0     \;;
#X scalar struct1 240 -504 5 0 0 0 0 0 0 0 0     \;;
#X scalar struct1 288 -528 6 0 0 0 0 0 0 0 0     \;;
#X scalar struct1 336 -504 7 0 0 0 0 0 0 0 0     \;;
#X scalar struct1 384 -528 8 0 0 0 0 0 0 0 0     \;;
#X scalar struct1 432 -504 9 0 0 0 0 0 0 0 0     \;;
#X scalar struct1 480 -528 10 0 0 0 0 0 0 0 0     \;;
#X scalar struct1 0 -528 0 0 0 0 0 0 0 0 0     \;;
#X coords 0 694.211 0.89 693.321 0 0 0;
#X restore -432 -28 pd graphic;
#N canvas 646 266 503 772 set/get 1;
#X obj 48 -1 route click;
#X msg 176 267 set \$1;
#X obj 176 302 tgl 17 0 empty empty empty 17 7 0 10 #dfdfdf #000000 #000000 0 1;
#X obj 48 401 outlet;
#X obj 48 -39 inlet;
#X obj 48 363 pack float float;
#X obj 48 302 get struct1 n;
#X obj 176 233 get struct1 b;
#X obj 176 363 set struct1 b;
#X obj 87 68 get struct1 c;
#X obj 87 35 t p;
#X obj 48 189 t p b p;
#X obj 48 139 spigot;
#X obj 87 100 expr $f1 - 6;
#X obj 202 29 print;
#X obj 195 334 s playtile;
#X connect 0 0 10 0;
#X connect 0 0 12 0;
#X connect 0 0 14 0;
#X connect 1 0 2 0;
#X connect 2 0 5 1;
#X connect 2 0 8 0;
#X connect 2 0 15 0;
#X connect 4 0 0 0;
#X connect 5 0 3 0;
#X connect 6 0 5 0;
#X connect 7 0 1 0;
#X connect 9 0 13 0;
#X connect 10 0 9 0;
#X connect 11 0 6 0;
#X connect 11 1 2 0;
#X connect 11 2 8 1;
#X connect 11 2 7 0;
#X connect 12 0 11 0;
#X connect 13 0 12 1;
#X restore 91 147 pd set/get;
#X obj 4 16 loadbang;
#X obj -433 -70 declare -lib pdlua -path pdlua;
#X msg 181 786 clear;
#X obj 181 823 s pd-graphic;
#X obj -264 1047 s pd-graphic;
#X obj -264 971 pack f f f f f;
#X msg -264 1010 scalar struct1 \$2 \$1 \$3 \$4 \$5;
#X obj -115 300 t b f b;
#X obj -89 342 until;
#X obj -89 380 random 120;
#X obj -89 460 list prepend;
#X obj -89 500 t l l;
#X obj -114 548 list;
#X obj -115 229 random 5;
#X obj -87 599 print;
#X obj -263 493 t f b;
#X msg -231 603 0;
#X msg -193 738 1;
#X obj -89 420 expr if($f1 == 60 \, 3 \, $f1);
#X obj -187 564 t b f;
#X obj -139 599 list;
#X obj -139 631 list-abs/list-drip;
#X obj -193 678 select;
#X obj -193 708 bng 19 250 50 0 empty empty empty 0 -10 0 12 #fcfcfc #000000 #000000;
#X obj 303 514 abs/cat_move;
#X obj 384 470 pointer;
#X obj 313 396 t b b;
#X obj 313 336 bng 19 250 50 0 empty empty empty 0 -10 0 12 #fcfcfc #000000 #000000;
#X obj 430 437 r catpointer;
#X obj 303 562 s catpointer;
#X obj 49 290 abs/get_gamestate;
#X obj 49 332 s catpointer;
#X obj 49 245 bng 19 250 50 0 empty empty empty 0 -10 0 12 #fcfcfc #000000 #000000;
#X obj 228 414 f;
#X obj 229 332 list;
#X obj 229 277 bng 19 250 50 0 empty empty empty 0 -10 0 12 #fcfcfc #000000 #000000;
#X obj -281 201 t b b b b;
#X obj -415 264 abs/get_gamestate;
#X obj -415 297 s catpointer;
#X obj 91 196 t b b b;
#X obj 4 61 t b b;
#X obj -281 127 bng 19 250 50 0 empty empty empty 0 -10 0 12 #fcfcfc #000000 #000000;
#X obj 169 441 print;
#X obj 165 332 print;
#X msg -316 352 stop;
#X obj -261 352 f;
#X obj -205 352 + 1;
#X msg -184 278 1;
#X obj -261 393 select 122;
#X obj -281 90 r regenerate;
#X obj 219 515 delay 28;
#N canvas -132 -902 1073 802 sound 0;
#X obj 32 167 soundfiler;
#X obj 33 27 loadbang;
#X obj 196 384 dac~;
#X obj 36 230 r playtile;
#X obj 36 268 sel 1;
#X obj 164 230 r playyouwin;
#X obj 303 230 r playyoulose;
#X obj 164 315 tabplay~ syouwin;
#X obj 303 315 tabplay~ syoulose;
#X msg 167 553 set syouwin;
#X obj 36 315 tabplay~ stile;
#N canvas 0 22 450 278 (subpatch) 0;
#X array stile 27562 float 2;
#X coords 0 1 27562 -1 200 140 1 0 0;
#X restore 463 49 graph;
#N canvas 0 22 450 278 (subpatch) 0;
#X array syouwin 83249 float 2;
#X coords 0 1 83249 -1 200 140 1 0 0;
#X restore 687 49 graph;
#N canvas 0 22 450 278 (subpatch) 0;
#X array syoulose 60637 float 2;
#X coords 0 1 60637 -1 200 140 1 0 0;
#X restore 687 226 graph;
#X msg 33 57 read -resize sounds/tile.wav stile;
#X msg 47 88 read -resize sounds/youwin.wav syouwin;
#X msg 65 118 read -resize sounds/youlose.wav syoulose;
#X obj 195 348 *~;
#X msg 213 282 2.1;
#X connect 1 0 14 0;
#X connect 1 0 15 0;
#X connect 1 0 16 0;
#X connect 3 0 4 0;
#X connect 4 0 10 0;
#X connect 5 0 7 0;
#X connect 5 0 18 0;
#X connect 6 0 8 0;
#X connect 7 0 17 0;
#X connect 8 0 2 0;
#X connect 8 0 2 1;
#X connect 10 0 2 0;
#X connect 10 0 2 1;
#X connect 14 0 0 0;
#X connect 15 0 0 0;
#X connect 16 0 0 0;
#X connect 17 0 2 0;
#X connect 18 0 17 1;
#X coords 0 802 1 801 0 0 0;
#X restore -333 -29 pd sound;
#X obj -115 266 + 4;
#X obj 228 455 route 68 69;
#X obj 136 515 delay 28;
#X msg 404 783 clear;
#X obj 404 820 s pd-graphic;
#X obj 219 563 s youlost;
#X obj 136 563 s youwon;
#X obj 135 713 r youwon;
#X obj 358 710 r youlost;
#X obj 229 373 cat_ai 6;
#N canvas 790 -774 834 545 effects 1;
#X obj 559 142 pointer;
#X msg 559 107 traverse pd-graphic \, bang;
#X obj 13 36 r \$0-circles;
#X obj 13 80 t b b p;
#X msg -42 202 stop;
#X obj 13 202 f;
#X obj 69 202 + 1;
#X msg 90 128 0;
#X msg 13 277 0;
#X obj 13 431 set struct1 side1 side2 side3 side4;
#X obj 13 316 expr 10 - $f1 * 3 + 25.6 \; 10 + $f1 * 3 + 25.6 \; 10 - $f1 * 3 \; 10 + $f1 * 3;
#X obj 13 243 select 8;
#X obj 356 425 struct endscreen float xind float yind symbol outcome;
#X floatatom 350 508 5 0 0 0 - - - 0;
#X obj 380 181 append endscreen xind yind;
#X msg 380 144 0 0;
#X obj 402 339 set -symbol endscreen outcome;
#X obj 357 67 t f b b;
#X obj 357 229 route 0 1;
#X obj 357 35 r screen;
#X msg 448 300 symbol you\ won!\ :);
#X obj 350 543 drawsymbol outcome 240 -264 768;
#X obj 13 128 metro 38;
#X obj 224 263 s playyoulose;
#X obj 448 265 s playyouwin;
#X msg 224 300 symbol the\ cat\ escaped\ :(;
#X connect 0 0 14 2;
#X connect 1 0 0 0;
#X connect 2 0 3 0;
#X connect 3 0 22 0;
#X connect 3 1 7 0;
#X connect 3 2 9 4;
#X connect 4 0 22 0;
#X connect 5 0 6 0;
#X connect 5 0 11 0;
#X connect 6 0 5 1;
#X connect 7 0 5 1;
#X connect 8 0 10 0;
#X connect 10 0 9 0;
#X connect 10 1 9 1;
#X connect 10 2 9 2;
#X connect 10 3 9 3;
#X connect 11 0 4 0;
#X connect 11 0 8 0;
#X connect 11 1 10 0;
#X connect 13 0 21 0;
#X connect 14 0 16 1;
#X connect 15 0 14 0;
#X connect 17 0 18 0;
#X connect 17 1 15 0;
#X connect 17 2 1 0;
#X connect 18 0 25 0;
#X connect 18 0 23 0;
#X connect 18 1 20 0;
#X connect 18 1 24 0;
#X connect 19 0 17 0;
#X connect 20 0 16 0;
#X connect 22 0 5 0;
#X connect 25 0 16 0;
#X restore -432 11 pd effects;
#X obj 135 997 s regenerate;
#X obj 158 891 s screen;
#X obj 381 887 s screen;
#X obj 135 959 t b b;
#X obj 358 993 s regenerate;
#X obj 358 955 t b b;
#X msg 381 852 0;
#X msg 158 855 1;
#X obj 135 749 t b b b;
#X obj 358 746 t b b b;
#X obj 358 919 delay 985;
#X obj 135 923 delay 995;
#X obj 630 623 s pd-graphic;
#X msg 630 585 donecanvasdialog \$1 \$1 0 0 -1 1 1 0 0 0 0;
#X obj -418 783 expr if(($f1 % 11 + 1) % 2 != 0 \, -6 * ceil($f1 / 11) * 8 \, (-6 * ceil($f1 / 11) + 3) * 8) \; 6 * ((($f1 % 11 + 1) - 1) % 11) * 8 \; if($f1 % 11 == 0 \, 121 - $f1 \, $f1 - (110 - 22 * ceil((111 - $f1) / 11))) \; 0 \; if($f1 == 60 \, 6 \, 0);
#X obj -250 127 s instructions;
#X obj 58 61 s instructions;
#X obj 292 104 r instructions;
#X obj -261 278 metro 9;
#X msg 751 -7 \; pd-graphic text 327 1084 ⬬;
#X msg 772 42 \; pd-graphic text 328 1089 ∧;
#X msg 796 91 \; pd-graphic text 322 1087 _;
#X msg 975 1 \; pd-graphic text 334 1087 _;
#X floatatom 458 95 5 0 0 0 - - - 0;
#X msg 292 141 \; pd-graphic text \$1 738 trap the cat! click on any tile to try to enclose the cat.;
#X msg 630 549 0.89;
#X msg 806 147 \; pd-graphic text 322 1087 ◉;
#X connect 0 0 2 0;
#X connect 2 0 42 0;
#X connect 3 0 43 0;
#X connect 3 0 82 0;
#X connect 5 0 6 0;
#X connect 8 0 9 0;
#X connect 9 0 7 0;
#X connect 10 0 15 0;
#X connect 10 1 11 0;
#X connect 10 2 13 1;
#X connect 11 0 12 0;
#X connect 12 0 21 0;
#X connect 13 0 14 0;
#X connect 14 0 15 1;
#X connect 14 1 13 1;
#X connect 15 0 17 0;
#X connect 15 0 23 1;
#X connect 16 0 55 0;
#X connect 18 0 22 0;
#X connect 18 0 80 0;
#X connect 18 1 19 0;
#X connect 19 0 8 3;
#X connect 20 0 8 3;
#X connect 21 0 13 0;
#X connect 22 0 23 0;
#X connect 22 1 25 1;
#X connect 23 0 24 0;
#X connect 24 0 25 0;
#X connect 25 0 26 0;
#X connect 26 0 20 0;
#X connect 27 0 32 0;
#X connect 28 0 27 1;
#X connect 29 0 36 0;
#X connect 29 1 28 0;
#X connect 30 0 29 0;
#X connect 31 0 28 1;
#X connect 33 0 34 0;
#X connect 33 1 37 1;
#X connect 33 1 46 0;
#X connect 35 0 33 0;
#X connect 36 0 56 0;
#X connect 37 0 64 0;
#X connect 38 0 37 0;
#X connect 39 0 40 0;
#X connect 39 1 84 0;
#X connect 39 2 50 0;
#X connect 39 3 16 0;
#X connect 40 0 41 0;
#X connect 42 0 30 0;
#X connect 42 1 38 0;
#X connect 42 2 35 0;
#X connect 43 0 39 0;
#X connect 43 1 0 0;
#X connect 44 0 39 0;
#X connect 47 0 84 0;
#X connect 48 0 49 0;
#X connect 48 0 51 0;
#X connect 49 0 48 1;
#X connect 50 0 48 1;
#X connect 51 0 47 0;
#X connect 51 1 18 0;
#X connect 52 0 44 0;
#X connect 52 0 81 0;
#X connect 53 0 60 0;
#X connect 55 0 10 0;
#X connect 56 0 57 0;
#X connect 56 1 53 0;
#X connect 56 2 27 0;
#X connect 57 0 61 0;
#X connect 58 0 59 0;
#X connect 62 0 74 0;
#X connect 63 0 75 0;
#X connect 64 0 36 1;
#X connect 64 0 45 0;
#X connect 69 0 66 0;
#X connect 69 1 5 0;
#X connect 71 0 70 0;
#X connect 71 1 58 0;
#X connect 72 0 68 0;
#X connect 73 0 67 0;
#X connect 74 0 77 0;
#X connect 74 1 73 0;
#X connect 74 2 5 0;
#X connect 75 0 76 0;
#X connect 75 1 72 0;
#X connect 75 2 58 0;
#X connect 76 0 71 0;
#X connect 77 0 69 0;
#X connect 79 0 78 0;
#X connect 80 0 8 0;
#X connect 80 1 8 1;
#X connect 80 2 8 2;
#X connect 80 4 8 4;
#X connect 83 0 90 0;
#X connect 84 0 48 0;
#X connect 89 0 90 0;
#X connect 91 0 79 0;
