#N canvas 266 251 1145 763 12;
#X text 679 -76 N = 0 NE = 1 SE = 2 S = 3 SW = 4 NW = 5;
#X text 28 -82 move cat inputs: pointer to cat \, direction of move output: pointer to moved cat;
#X text 88 368 x-coord;
#X text 617 369 y-coord;
#X obj 599 392 expr if($f1 == 0 \, $f2 - 48 \, 0) + if ($f1 == 1 \, $f2 - 24 \, 0) + if($f1 == 2 \, $f2 + 24 \, 0) + if($f1 == 3 \, $f2 + 48 \, 0) + if($f1 == 4 \, $f2 + 24 \, 0) + if($f1 == 5 \, $f2 - 24 \, 0);
#X obj 517 458 pointer;
#X msg 517 424 next;
#X obj 517 392 until;
#X obj 516 499 get struct1 x y;
#X obj 516 537 expr if($f1 == $f3 && $f2 == $f4 \, 1 \, 0);
#X obj 477 578 spigot;
#X obj 539 737 set struct1 c;
#X msg 539 707 6;
#X obj 579 222 bng 19 250 50 0 empty empty empty 0 -10 0 12 #fcfcfc #000000 #000000;
#X msg 637 336 traverse pd-graphic;
#X obj 579 336 t b f;
#X msg 579 297 121;
#X obj 579 259 t b b b;
#X obj 68 391 expr if($f1 == 0 \, $f2 \, 0) + if ($f1 == 1 \, $f2 + 48 \, 0) + if($f1 == 2 \, $f2 + 48 \, 0) + if($f1 == 3 \, $f2 \, 0) + if($f1 == 4 \, $f2 - 48 \, 0) + if($f1 == 5 \, $f2 - 48 \, 0);
#X obj 484 165 get struct1 x y;
#X obj 567 130 set struct1 c;
#X msg 567 97 0;
#X text 564 43 delete previous cat;
#X obj 484 46 inlet;
#X obj 443 1065 outlet;
#X obj 362 44 inlet;
#X text 198 19 direction of new move (number);
#X text 481 21 pointer;
#X obj 567 66 bng 19 250 50 0 empty empty empty 0 -10 0 12 #fcfcfc #000000 #000000;
#X msg 488 894 symbol ⬬;
#X obj 488 930 set -symbol struct1 catnose;
#X obj 464 1000 set -symbol struct1 catmouth;
#X msg 464 964 symbol ∧;
#X obj 443 1032 pointer;
#X obj 451 659 t b b b b b b;
#X obj 520 796 set -symbol struct1 cateyeright;
#X obj 503 863 set -symbol struct1 cateyeleft;
#X msg 503 827 symbol ⬮;
#X msg 520 760 symbol ⬮;
#X obj 689 608 t b b;
#X obj 392 939 delay 100;
#X connect 4 0 9 3;
#X connect 5 0 8 0;
#X connect 5 0 10 0;
#X connect 5 1 7 1;
#X connect 6 0 5 0;
#X connect 7 0 6 0;
#X connect 8 0 9 0;
#X connect 8 1 9 1;
#X connect 9 0 10 1;
#X connect 10 0 11 1;
#X connect 10 0 30 1;
#X connect 10 0 31 1;
#X connect 10 0 34 0;
#X connect 10 0 33 1;
#X connect 10 0 35 1;
#X connect 10 0 36 1;
#X connect 10 0 39 0;
#X connect 12 0 11 0;
#X connect 13 0 17 0;
#X connect 14 0 5 0;
#X connect 15 1 7 0;
#X connect 16 0 15 0;
#X connect 17 0 16 0;
#X connect 17 1 14 0;
#X connect 18 0 9 2;
#X connect 19 0 18 1;
#X connect 19 1 4 1;
#X connect 21 0 20 0;
#X connect 23 0 19 0;
#X connect 23 0 20 1;
#X connect 23 0 28 0;
#X connect 25 0 18 0;
#X connect 25 0 4 0;
#X connect 25 0 13 0;
#X connect 28 0 21 0;
#X connect 29 0 30 0;
#X connect 32 0 31 0;
#X connect 33 0 24 0;
#X connect 34 0 40 0;
#X connect 34 3 32 0;
#X connect 34 4 29 0;
#X connect 34 5 12 0;
#X connect 37 0 36 0;
#X connect 38 0 35 0;
#X connect 39 0 38 0;
#X connect 39 1 37 0;
#X connect 40 0 33 0;
