#N canvas 305 179 589 640 12;
#X obj 137 345 pointer;
#X msg 183 306 next;
#X floatatom 137 427 5 0 0 0 - - - 0;
#X floatatom 184 427 5 0 0 0 - - - 0;
#X floatatom 233 427 5 0 0 0 - - - 0;
#X floatatom 281 428 5 0 0 0 - - - 0;
#X msg 137 237 traverse pd-graphic;
#X obj 183 273 until;
#X obj 326 591 t l l;
#X obj 287 502 list append;
#X msg 319 201 121;
#X obj 274 591 list;
#X obj 391 502 list append;
#X obj 434 589 t l l;
#X obj 382 590 list;
#X msg 201 592 zlclear;
#X obj 274 656 cyclone/zl.indexmap 2 3 1;
#X obj 319 238 t b b f b;
#X obj 208 128 bng 19 250 50 0 empty empty empty 0 -10 0 12 #fcfcfc #000000 #000000;
#X obj 208 165 t b b;
#X obj 137 383 get struct1 x y f b c;
#X floatatom 330 428 5 0 0 0 - - - 0;
#X obj 400 465 +;
#X obj 59 542 spigot;
#X text 11 15 get gamestate input: bang output: gamestate as an array of values \, pointer to cat;
#X obj 274 693 outlet;
#X obj 57 655 outlet;
#X obj 208 95 inlet;
#X obj 98 502 expr if($f1 == 6 \, 6 \, 0);
#X connect 0 0 20 0;
#X connect 0 0 23 0;
#X connect 0 1 7 1;
#X connect 1 0 0 0;
#X connect 4 0 9 0;
#X connect 5 0 22 0;
#X connect 6 0 0 0;
#X connect 7 0 1 0;
#X connect 8 0 11 1;
#X connect 8 1 9 1;
#X connect 9 0 8 0;
#X connect 10 0 17 0;
#X connect 11 0 16 1;
#X connect 12 0 13 0;
#X connect 13 0 14 1;
#X connect 13 1 12 1;
#X connect 14 0 16 0;
#X connect 15 0 16 0;
#X connect 16 0 25 0;
#X connect 17 0 14 0;
#X connect 17 1 11 0;
#X connect 17 2 7 0;
#X connect 17 3 12 1;
#X connect 17 3 9 1;
#X connect 18 0 19 0;
#X connect 19 0 10 0;
#X connect 19 1 6 0;
#X connect 20 0 2 0;
#X connect 20 1 3 0;
#X connect 20 2 4 0;
#X connect 20 3 5 0;
#X connect 20 4 21 0;
#X connect 21 0 22 1;
#X connect 22 0 12 0;
#X connect 22 0 28 0;
#X connect 23 0 26 0;
#X connect 27 0 18 0;
#X connect 28 0 23 1;
