#N canvas 453 -999 1268 971 12;
#X text 679 -76 N = 0 NE = 1 SE = 2 S = 3 SW = 4 NW = 5;
#X text 28 -82 move cat inputs: pointer to cat \, direction of move output: pointer to moved cat;
#X text 88 368 x-coord;
#X text 617 369 y-coord;
#X obj 517 458 pointer;
#X msg 517 424 next;
#X obj 517 392 until;
#X obj 516 499 get struct1 x y;
#X obj 516 537 expr if($f1 == $f3 && $f2 == $f4 \, 1 \, 0);
#X obj 477 578 spigot;
#X obj 539 737 set struct1 c;
#X msg 539 707 6;
#X obj 579 222 bng 19 250 50 0 empty empty empty 0 -10 0 12 #fcfcfc #000000 #000000;
#X msg 637 336 traverse pd-graphic;
#X obj 579 336 t b f;
#X msg 579 297 121;
#X obj 579 259 t b b b;
#X obj 484 165 get struct1 x y;
#X obj 567 130 set struct1 c;
#X msg 567 97 0;
#X obj 484 46 inlet;
#X obj 443 1065 outlet;
#X obj 362 44 inlet;
#X text 198 19 direction of new move (number);
#X text 481 21 pointer;
#X obj 567 66 bng 19 250 50 0 empty empty empty 0 -10 0 12 #fcfcfc #000000 #000000;
#X obj 443 1032 pointer;
#X obj 68 391 expr if($f1 == 0 \, $f2 \, 0) + if ($f1 == 1 \, $f2 + 42 \, 0) + if($f1 == 2 \, $f2 + 42 \, 0) + if($f1 == 3 \, $f2 \, 0) + if($f1 == 4 \, $f2 - 42 \, 0) + if($f1 == 5 \, $f2 - 42 \, 0);
#X obj 599 392 expr if($f1 == 0 \, $f2 - 48 \, 0) + if ($f1 == 1 \, $f2 - 24 \, 0) + if($f1 == 2 \, $f2 + 24 \, 0) + if($f1 == 3 \, $f2 + 48 \, 0) + if($f1 == 4 \, $f2 + 24 \, 0) + if($f1 == 5 \, $f2 - 24 \, 0);
#X obj 733 678 s drawtriad;
#X obj 733 753 s deletetriadptr;
#X obj 688 692 bng 19 250 50 0 empty empty empty 0 -10 0 12 #fcfcfc #000000 #000000;
#X obj 378 869 delay 100;
#X obj 451 659 t b b;
#X obj 539 681 delay 15;
#X connect 4 0 7 0;
#X connect 4 0 9 0;
#X connect 4 1 6 1;
#X connect 5 0 4 0;
#X connect 6 0 5 0;
#X connect 7 0 8 0;
#X connect 7 1 8 1;
#X connect 8 0 9 1;
#X connect 9 0 10 1;
#X connect 9 0 26 1;
#X connect 9 0 31 0;
#X connect 9 0 33 0;
#X connect 9 0 29 0;
#X connect 11 0 10 0;
#X connect 12 0 16 0;
#X connect 13 0 4 0;
#X connect 14 1 6 0;
#X connect 15 0 14 0;
#X connect 16 0 15 0;
#X connect 16 1 13 0;
#X connect 17 0 27 1;
#X connect 17 1 28 1;
#X connect 19 0 18 0;
#X connect 20 0 17 0;
#X connect 20 0 18 1;
#X connect 20 0 25 0;
#X connect 22 0 27 0;
#X connect 22 0 28 0;
#X connect 22 0 12 0;
#X connect 25 0 19 0;
#X connect 26 0 21 0;
#X connect 27 0 8 2;
#X connect 28 0 8 3;
#X connect 31 0 30 0;
#X connect 32 0 26 0;
#X connect 33 0 32 0;
#X connect 33 1 34 0;
#X connect 34 0 11 0;
